# This file uses centimeters as units for non-parametric coordinates.

mtllib Rock_wall03_low.mtl
g default
v 46.045856 310.799072 699.086182
v 80.521393 311.017700 608.951904
v -122.785172 311.411438 592.827881
v -121.803818 311.361633 696.184082
v -124.121414 315.851501 540.149414
v 90.751282 313.004089 552.467957
v 87.509247 315.437988 539.934692
v -121.897354 316.929260 529.555664
v 92.340378 310.913330 528.930054
v -123.178711 317.826538 519.429321
v 98.397400 319.985718 464.660828
v -125.464111 322.411255 462.789551
v -123.651306 324.756897 444.725952
v 111.068375 322.393982 460.666199
v 124.497986 331.364685 376.833862
v -125.702148 332.604248 373.725311
v 80.676865 307.519836 286.804565
v 44.403008 310.697144 284.465668
v -125.857391 279.314392 131.663239
v 73.022461 277.405579 119.957367
v -125.717590 278.619507 -63.201813
v 44.737022 278.680054 -63.071808
v -123.011887 284.497131 -9.460938
v 61.227524 284.260498 -21.429291
v 84.794266 328.314392 -387.529053
v -126.009628 326.855835 -396.227417
v 103.734116 326.112122 -395.030579
v -125.689850 323.804260 -421.983643
v 122.373489 316.070435 -478.335815
v -120.604095 314.199524 -503.384766
v 117.310394 315.843689 -493.303467
v 127.664856 313.507385 -500.218445
v 123.184860 306.228210 -637.993835
v -123.409622 307.808167 -627.519592
v -123.879639 310.914490 -697.076599
v 106.532745 310.738953 -698.755188
v 116.078690 284.359009 -492.136780
v 120.001205 260.286865 -626.243225
v 93.267822 226.160248 -700.473572
v -123.925461 257.192261 -700.072327
v 62.857510 223.305923 -390.877563
v 48.928379 225.077026 -388.192017
v 35.410736 218.297577 699.856445
v 71.005898 219.415024 608.738770
v 80.455414 220.303375 554.632935
v 80.080841 219.957260 542.577087
v 82.128670 220.350937 530.391357
v 90.688782 222.112793 461.691681
v 98.325775 225.120132 459.218445
v 114.052353 233.006683 375.236267
v 71.484299 222.186813 284.768188
v 66.157516 214.219376 608.456787
v 76.621040 215.373505 530.700500
v 87.579422 216.411926 460.336700
v 94.920685 219.464828 459.516113
v 110.034897 227.816742 375.705902
v 66.800674 216.650589 286.978363
v 35.521435 221.883377 281.144836
v 63.981716 223.101486 118.098602
v 52.301025 216.885025 -22.899384
v 36.039600 211.943405 -62.055328
v -125.873383 303.788086 -200.915039
v 64.785187 302.045288 -197.225098
v 49.558403 242.340225 -194.579163
v 55.971619 217.275009 -390.970520
v 101.449051 223.948807 -494.484009
v 38.320946 215.372528 -385.816040
v 32.688328 212.183075 283.870850
v 56.269554 211.423706 116.550415
v 46.581688 206.319336 -21.560303
v 30.382374 208.356995 -63.329102
v 42.074867 237.714081 -196.459290
v 114.908188 225.861801 -637.705872
v 94.710266 219.661545 -497.647095
v 109.894150 218.845367 -633.210144
v 47.119736 105.717232 -393.273376
v 79.706497 108.585899 -496.438171
v 83.678513 99.896187 -625.958801
v 64.771851 100.519615 -700.463928
v 28.356331 107.142418 -388.713989
v 20.315201 99.397820 -190.695679
v 7.473129 125.759445 -61.515656
v 24.227898 116.467972 -17.058258
v 31.248384 103.905380 117.295654
v 12.153436 99.743645 279.316772
v 48.359154 104.675667 282.689362
v 90.280334 76.682526 364.591705
v 72.238426 84.675125 450.313599
v 61.418327 90.051918 460.082458
v 53.482990 98.318199 537.241638
v 41.014168 106.945885 614.940674
v 4.922615 106.338448 700.105347
v 33.161419 104.195084 -400.684082
v 67.008835 102.141350 -502.427612
v 69.210754 96.825478 -625.569153
v 13.814236 100.260536 -385.549561
v 8.768627 94.162094 -197.026062
v -6.607235 120.457985 -61.833801
v 5.610174 110.614632 -26.564850
v 18.639868 97.795822 118.054718
v -1.576851 94.947433 273.637756
v 72.758545 74.434799 360.042999
v 55.390694 70.949875 455.133362
v 41.435036 71.789398 457.890717
v 35.375748 90.163330 534.065735
v 24.646832 99.955772 614.412903
v -8.735909 90.707230 698.536987
v 58.046047 -332.695984 367.063171
v 21.529350 -331.214844 295.713989
v 46.941456 -333.064575 459.847931
v 33.172886 -332.940308 462.204895
v 26.353888 -332.780884 536.825439
v 15.173492 -332.782410 618.514282
v -21.589188 -330.583191 699.668823
v -18.607533 -332.781250 286.000671
v 42.539539 -330.133484 -700.551575
v 19.353910 -332.256042 -389.977966
v 70.507317 -329.450317 -533.796875
v 55.844208 -329.743713 -658.521423
v 2.836721 -326.131775 -388.384644
v 2.025602 -331.436157 -216.061096
v -17.338612 -328.753967 -59.988831
v -6.073273 -332.729858 -32.210938
v 5.637787 -332.931641 125.016388
v -1.127939 -332.757751 171.878189
v -11.508259 -331.268921 239.520248
v -126.354813 -330.286804 -696.619446
v -124.549561 108.156746 -699.898254
v -126.398376 218.252304 696.654724
v -126.381287 104.315254 696.396912
v -126.327682 86.306374 696.598999
v -126.426483 -330.375122 696.434265
vt 0.746986 0.595549
vt 0.749612 0.602087
vt 0.724256 0.601819
vt 0.778855 0.649615
vt 0.713784 0.687604
vt 0.745313 0.590803
vt 0.709620 0.692790
vt 0.679826 0.614406
vt 0.742634 0.504120
vt 0.712078 0.518167
vt 0.690663 0.511299
vt 0.741769 0.463264
vt 0.691306 0.465759
vt 0.672940 0.612173
vt 0.684990 0.513991
vt 0.595661 0.576565
vt 0.608629 0.498400
vt 0.560738 0.644256
vt 0.616810 0.448514
vt 0.557733 0.446368
vt 0.492002 0.440731
vt 0.494115 0.377236
vt 0.559644 0.384346
vt 0.559294 0.379569
vt 0.597087 0.449135
vt 0.596381 0.386738
vt 0.493589 0.298135
vt 0.555161 0.305264
vt 0.612300 0.381557
vt 0.605916 0.450605
vt 0.604512 0.386048
vt 0.492293 0.284145
vt 0.552969 0.293447
vt 0.607901 0.301570
vt 0.614180 0.447819
vt 0.612876 0.386498
vt 0.500439 0.000000
vt 0.560538 0.001163
vt 0.660262 0.383373
vt 0.660119 0.296341
vt 0.657865 0.453889
vt 0.659562 0.387791
vt 0.607839 0.288151
vt 0.616136 0.003261
vt 0.659830 0.277907
vt 0.666647 0.005033
vt 0.614195 0.845586
vt 0.557120 0.835100
vt 0.562121 0.769263
vt 0.618317 0.780032
vt 0.561987 0.764875
vt 0.618514 0.775701
vt 0.682112 0.828646
vt 0.684636 0.770969
vt 0.571755 0.674632
vt 0.629670 0.673687
vt 0.684313 0.765948
vt 0.691214 0.690565
vt 0.793611 0.349806
vt 0.811076 0.464377
vt 0.750600 0.460485
vt 0.756276 0.348480
vt 0.743755 0.462363
vt 0.746769 0.347613
vt 0.795454 0.253103
vt 0.749321 0.252872
vt 0.666177 0.458985
vt 0.671836 0.348503
vt 0.741174 0.253502
vt 0.789209 0.223378
vt 0.743320 0.224358
vt 0.678299 0.257233
vt 0.738889 0.222985
vt 0.766768 0.134328
vt 0.808601 0.133339
vt 0.680879 0.224497
vt 0.760826 0.132945
vt 0.833154 0.005013
vt 0.758922 0.002624
vt 0.665650 0.134911
vt 0.749140 0.004187
vt 0.675539 0.000000
vt 0.845414 0.735688
vt 0.781415 0.731583
vt 0.784727 0.463661
vt 0.846655 0.465542
vt 0.912349 0.752437
vt 0.899792 0.466709
vt 0.422554 0.762309
vt 0.349224 0.763525
vt 0.340060 0.464959
vt 0.444441 0.467187
vt 0.506782 0.758786
vt 0.530321 0.467013
vt 0.558085 0.761400
vt 0.560466 0.466515
vt 0.477222 0.002256
vt 0.472790 0.132513
vt 0.178797 0.119025
vt 0.182607 0.000000
vt 0.490646 0.226554
vt 0.180275 0.227660
vt 0.484042 0.252386
vt 0.177708 0.248388
vt 0.475390 0.352701
vt 0.177737 0.357289
vt 0.472938 0.461059
vt 0.177698 0.389994
vt 0.177266 0.469739
vt 0.178478 0.437267
vt 0.118861 0.000000
vt 0.143059 0.062076
vt 0.002770 0.074104
vt 0.002992 0.002744
vt 0.150382 0.101048
vt 0.002085 0.110607
vt 0.148193 0.109875
vt 0.003664 0.117950
vt 0.151673 0.118030
vt 0.002820 0.124974
vt 0.155810 0.162845
vt 0.001248 0.164206
vt 0.164565 0.166047
vt 0.002489 0.176783
vt 0.173700 0.224277
vt 0.000956 0.226096
vt 0.143543 0.288622
vt 0.118371 0.289598
vt 0.138054 0.405490
vt 0.000753 0.397218
vt 0.129728 0.503202
vt 0.002544 0.494719
vt 0.118281 0.532185
vt 0.000600 0.532039
vt 0.131943 0.626224
vt 0.000306 0.628690
vt 0.000000 0.764470
vt 0.145559 0.758876
vt 0.158624 0.764299
vt 0.000161 0.782377
vt 0.171278 0.822277
vt 0.003462 0.838979
vt 0.167745 0.832599
vt 0.174876 0.837664
vt 0.171315 0.932900
vt 0.001103 0.924785
vt 0.159576 0.974898
vt 0.000508 0.972852
vt 0.999597 0.057417
vt 0.969534 0.124006
vt 0.994529 0.055177
vt 0.982191 0.386375
vt 0.966679 0.456772
vt 0.956920 0.452698
vt 0.972477 0.382980
vt 0.954562 0.461190
vt 0.943755 0.462759
vt 0.976674 0.300048
vt 0.966872 0.301062
vt 0.940931 0.592587
vt 0.932708 0.587951
vt 0.960660 0.251417
vt 0.934888 0.680610
vt 0.924889 0.679924
vt 0.941713 0.712124
vt 0.928960 0.705310
vt 0.940092 0.802109
vt 0.930750 0.802386
vt 0.924873 0.909737
vt 0.915269 0.905749
vt 0.949983 0.000923
vt 0.977212 0.057272
vt 0.965550 0.055061
vt 0.926122 0.000000
vt 0.969783 0.114029
vt 0.955655 0.117222
vt 0.995233 0.002457
vt 0.988531 0.054402
vt 0.976769 0.053751
vt 0.982156 0.000000
vt 0.338805 0.469897
vt 0.329600 0.528572
vt 0.178956 0.507058
vt 0.178990 0.469739
vt 0.309841 0.615716
vt 0.178529 0.610427
vt 0.294441 0.914413
vt 0.177266 0.914535
vt 0.963819 0.149653
vt 0.950015 0.151372
vt 0.926167 0.081109
vt 0.935798 0.079907
vt 0.918706 0.074613
vt 0.931208 0.075717
vt 0.911651 0.001135
vt 0.924747 0.000000
vt 1.000000 0.932936
vt 0.990912 0.932114
vt 0.980689 0.866526
vt 0.986274 0.868064
vt 0.978635 0.862541
vt 0.983702 0.864413
vt 0.956429 0.778208
vt 0.965848 0.773568
vt 0.944210 0.764511
vt 0.953841 0.764506
vt 0.954167 0.491095
vt 0.963596 0.491562
vt 0.738277 0.673454
vt 0.763417 0.675511
vt 0.757313 0.734545
vt 0.732328 0.734913
vt 0.754275 0.738816
vt 0.730600 0.741940
vt 0.741430 0.816265
vt 0.716297 0.819714
vt 0.768041 0.657329
vt 0.778171 0.654220
vt 0.784128 0.946936
vt 0.756092 0.947739
vt 0.833647 0.385285
vt 0.817746 0.382698
vt 0.813974 0.106502
vt 0.824730 0.102562
vt 0.955369 0.444869
vt 0.838941 0.445238
vt 0.835772 0.380661
vt 0.948016 0.380711
vt 0.835790 0.301641
vt 0.926891 0.303057
vt 0.835826 0.289150
vt 0.917393 0.292183
vt 0.835680 0.000163
vt 0.908424 0.000000
vt 0.627312 0.673691
vn 0.002483 0.999995 0.001817
vn 0.003043 0.999611 0.027717
vn 0.003001 0.999664 0.025741
vn 0.002483 0.999995 0.001817
vn 0.003463 0.997290 0.073486
vn 0.003442 0.997204 0.074655
vn 0.014496 0.999890 -0.003225
vn 0.014420 0.999893 -0.002271
vn 0.019300 0.996493 0.081425
vn 0.019418 0.996762 0.078033
vn 0.013828 0.990097 0.139705
vn 0.015582 0.991533 0.128917
vn 0.003096 0.993731 0.111757
vn 0.002999 0.992699 0.120581
vn 0.009082 0.999856 -0.014320
vn 0.006320 0.995809 -0.091233
vn 0.019442 0.971961 -0.234336
vn 0.010115 0.976423 -0.215628
vn 0.007199 0.995445 -0.095069
vn 0.007087 0.993999 -0.109157
vn 0.000998 0.995554 0.094191
vn 0.001191 0.994645 0.103341
vn 0.005549 0.999970 0.005480
vn 0.005881 0.999932 0.010071
vn -0.002539 0.994913 0.100705
vn -0.000935 0.989337 0.145639
vn -0.001084 0.989519 0.144401
vn -0.002128 0.996403 0.084713
vn 0.004178 0.992783 -0.119855
vn 0.004161 0.992370 -0.123225
vn 0.003507 0.993804 -0.111096
vn 0.003942 0.997065 -0.076461
vn -0.001156 0.990936 -0.134327
vn 0.003847 0.998466 -0.055226
vn 0.004209 0.999791 -0.020022
vn 0.004241 0.999840 -0.017400
vn 0.005143 0.998322 0.057676
vn 0.005143 0.998322 0.057676
vn 0.946364 -0.048858 -0.319386
vn 0.909711 -0.331913 0.249518
vn 0.950404 -0.264870 0.163021
vn 0.981884 -0.184825 0.041751
vn 0.556748 0.008999 0.830633
vn 0.976144 -0.164261 -0.141988
vn 0.981875 -0.184675 -0.042630
vn 0.951122 -0.140982 -0.274755
vn 0.946366 -0.194787 -0.257776
vn -0.002254 0.034283 -0.999410
vn -0.002357 0.012436 -0.999920
vn -0.002353 0.013389 -0.999908
vn -0.002254 0.034283 -0.999410
vn 0.854092 -0.313994 0.414651
vn 0.839850 -0.293765 0.456458
vn 0.940908 -0.294642 0.166968
vn 0.923257 -0.357681 0.140215
vn 0.951983 -0.102097 0.288625
vn 0.429391 -0.041962 0.902144
vn 0.422973 -0.075789 0.902967
vn 0.947203 -0.139334 0.288777
vn 0.989162 -0.102941 0.104697
vn 0.974822 -0.191578 0.114104
vn 0.993820 -0.092842 0.060852
vn 0.991854 -0.110096 0.064066
vn 0.986668 -0.093403 0.133279
vn 0.982062 -0.134520 0.132132
vn 0.959405 -0.096451 0.265026
vn 0.969729 -0.137750 0.201621
vn 0.964899 -0.118226 0.234505
vn 0.947632 -0.148827 0.282566
vn 0.985973 -0.108654 -0.126699
vn 0.979081 -0.135065 -0.152177
vn 0.795566 -0.070391 -0.601764
vn 0.749435 -0.107574 -0.653281
vn 0.938748 -0.235062 0.251988
vn 0.967016 -0.211774 0.141532
vn 0.938043 -0.211520 0.274472
vn 0.955742 -0.172988 0.237977
vn 0.978109 -0.169825 -0.120259
vn 0.794439 -0.114973 -0.596363
vn 0.083109 0.022023 -0.996297
vn 0.086674 -0.015484 -0.996116
vn 0.987590 -0.135582 0.079271
vn 0.974758 -0.128670 0.182461
vn 0.967706 -0.179820 0.176661
vn 0.980193 -0.186317 0.067139
vn 0.979311 -0.139101 -0.146970
vn 0.967679 -0.201585 -0.151528
vn 0.985024 -0.170528 -0.025439
vn 0.963354 -0.262082 -0.057111
vn 0.962346 -0.266423 0.053940
vn 0.947517 -0.315236 0.053270
vn 0.899091 -0.138720 0.415202
vn 0.933123 -0.316305 0.170974
vn 0.257655 -0.046706 0.965107
vn 0.089942 0.007251 -0.995921
vn 0.966930 -0.222133 0.125314
vn 0.967943 -0.247305 0.043894
vn 0.952501 -0.274052 -0.132809
vn 0.968951 -0.246959 -0.012079
vn 0.975230 -0.217580 0.039826
vn 0.982659 -0.184239 0.020907
vn 0.965937 -0.258618 -0.009035
vn 0.966448 -0.184547 0.178666
vn 0.971733 -0.231016 -0.048647
vn 0.881262 -0.201751 0.427403
vn 0.954426 -0.234505 0.184604
vn 0.962642 -0.268001 -0.038674
vn 0.942110 -0.225236 -0.248391
vn 0.972761 -0.212792 0.091955
vn 0.967074 -0.248903 0.053057
vn 0.951786 -0.306739 -0.003814
vn 0.921844 -0.362414 -0.137328
vn 0.947593 -0.317254 0.037661
vn 0.951849 -0.282469 0.119138
vn 0.726017 -0.211259 -0.654422
vn 0.698949 -0.049129 -0.713483
vn 0.957875 -0.248607 -0.143769
vn 0.929897 -0.267769 0.252175
vn 0.909002 -0.309743 0.278880
vn 0.937452 -0.311520 0.155368
vn 0.916286 -0.302229 0.262826
vn 0.362413 -0.136689 0.921940
vn 0.912291 -0.049212 0.406576
vn 0.985979 -0.047611 0.159933
vn 0.995906 -0.043875 -0.079038
vn 0.991257 -0.056333 0.119318
vn 0.996398 -0.050930 0.067797
vn 0.997823 -0.054439 0.037229
vn 0.987732 -0.054604 -0.146301
vn 0.997721 -0.067397 -0.003370
vn 0.987553 -0.086003 0.131693
vn 0.965269 -0.082195 -0.247991
vn 0.957205 -0.054106 0.284308
vn 0.970866 -0.052679 0.233763
vn 0.990500 -0.064377 0.121509
vn 0.960359 -0.063100 0.271532
vn 0.506487 -0.027238 0.861817
vn 0.979450 -0.024934 -0.200139
vn 0.741992 -0.024935 -0.669945
vn 0.959348 -0.023584 0.281239
vn 0.181646 0.007224 0.983338
vn 0.993412 -0.020203 0.112806
vn 0.995961 -0.020050 0.087522
vn 0.962396 -0.021221 0.270821
vn 0.482330 -0.010716 0.875924
vn 0.278363 -0.034630 -0.959851
vn 0.278363 -0.034630 -0.959851
vn 0.914749 -0.017870 0.403626
vn 0.990186 -0.013560 0.139098
vn 0.996210 -0.017316 -0.085242
vn 0.987920 -0.035210 -0.150914
vn 0.987920 -0.035210 -0.150914
vn 0.991657 -0.020389 0.127284
vn 0.997833 -0.021665 0.062123
vn 0.999418 -0.022569 0.025586
vn 0.990991 -0.027308 -0.131116
vn 0.999580 -0.028730 0.003747
vn 0.990039 -0.030804 0.137385
vn 0.987864 -0.035130 0.151299
vn 0.987864 -0.035130 0.151299
vn -0.009672 -0.002481 -0.999950
vn -0.009819 -0.002522 -0.999949
vn -0.012624 -0.003322 -0.999915
vn -0.012624 -0.003322 -0.999915
vn -0.018499 0.008202 0.999795
vn -0.021185 0.005533 0.999760
vn -0.023395 -0.000803 0.999726
vn -0.023219 0.000158 0.999730
vn -0.023277 0.001514 0.999728
s 1
g polySurface1
usemtl initialShadingGroup
f 1/111/1 2/112/2 3/113/3 4/114/4
f 6/115/5 5/116/6 3/113/3 2/112/2
f 5/116/6 6/115/5 7/117/7 8/118/8
f 8/118/8 7/117/7 9/119/9 10/120/10
f 10/120/10 9/119/9 11/121/11 12/122/12
f 14/123/13 13/124/14 12/122/12 11/121/11
f 13/124/14 14/123/13 15/125/15 16/126/16
f 15/125/15 17/127/17 18/128/18 16/126/16
f 20/129/19 19/130/20 16/126/16 18/128/18
f 22/133/21 21/134/22 23/132/23 24/131/24
f 24/131/24 23/132/23 19/130/20 20/129/19
f 26/137/25 62/136/26 63/135/27 25/138/28
f 26/137/25 25/138/28 27/139/29 28/140/30
f 28/140/30 27/139/29 29/141/31 30/142/32
f 31/143/33 30/142/32 29/141/31
f 30/142/32 31/143/33 32/144/34
f 30/142/32 32/144/34 33/145/35 34/146/36
f 36/147/37 35/148/38 34/146/36 33/145/35
s 3
f 31/1/39 29/2/40 37/3/41
f 32/6/42 31/1/43 37/3/41
f 33/9/44 32/6/42 37/3/41 38/10/45
f 36/12/46 33/9/44 38/10/45 39/13/47
s 5
f 36/181/48 39/182/49 40/183/50 35/184/51
s 3
f 29/2/40 27/4/52 41/5/53 37/3/41
f 27/189/52 25/190/54 42/191/55 41/192/53
s 6
f 2/20/56 1/21/57 43/22/58 44/23/59
f 6/25/60 2/20/56 44/23/59 45/26/61
f 7/30/62 6/25/60 45/26/61 46/31/63
f 9/35/64 7/30/62 46/31/63 47/36/65
f 11/41/66 9/35/64 47/36/65 48/42/67
f 14/197/68 11/198/66 48/199/67 49/200/69
f 15/47/70 14/48/68 49/49/69 50/50/71
f 17/53/72 15/47/70 50/50/71 51/54/73
f 44/23/59 43/22/58 52/24/74
f 45/26/61 44/23/59 52/24/74 53/29/75
f 46/31/63 45/26/61 53/29/75
f 47/36/65 46/31/63 53/29/75
f 48/42/67 47/36/65 53/29/75 54/39/76
f 49/200/69 48/199/67 54/201/76 55/202/77
f 50/50/71 49/49/69 55/51/77 56/52/78
f 51/54/73 50/50/71 56/52/78 57/57/79
f 18/209/80 17/210/72 51/211/73 58/212/81
s 3
f 20/59/82 18/60/83 58/61/84 59/62/85
f 24/65/86 20/59/82 59/62/85 60/66/87
f 22/70/88 24/65/86 60/66/87 61/71/89
f 25/78/54 63/75/90 64/74/91 42/79/55
s 1
f 63/135/27 62/136/26 21/134/22 22/133/21
s 3
f 64/74/91 63/75/90 22/70/88 61/71/89
f 37/3/41 41/5/53 65/7/92 66/8/93
f 41/192/53 42/191/55 67/193/94 65/194/92
s 6
f 58/212/81 51/211/73 57/213/79 68/214/95
s 3
f 59/62/85 58/61/84 68/63/96 69/64/97
f 60/66/87 59/62/85 69/64/97 70/69/98
f 61/71/89 60/66/87 70/69/98 71/73/99
f 64/74/91 61/71/89 71/73/99 72/77/100
f 42/79/55 64/74/91 72/77/100 67/81/101
f 38/10/45 37/3/41 66/8/93 73/11/102
f 66/149/93 65/150/92 74/151/103
f 73/11/102 66/8/93 74/14/103 75/15/104
f 39/13/47 38/10/45 73/11/102
f 39/13/47 73/11/102 75/15/104
f 74/14/103 65/235/92 76/18/105 77/16/106
f 75/15/104 74/14/103 77/16/106 78/17/107
f 39/13/47 75/15/104 78/17/107 79/19/108
f 65/194/92 67/193/94 80/195/109 76/196/105
f 67/81/101 72/77/100 81/80/110 80/82/109
f 72/77/100 71/73/99 82/76/111 81/80/110
f 71/73/99 70/69/98 83/72/112 82/76/111
f 70/69/98 69/64/97 84/68/113 83/72/112
f 69/64/97 68/63/96 85/67/114 84/68/113
s 6
f 68/214/95 57/213/79 86/215/115 85/216/116
f 57/57/79 56/52/78 87/56/117 86/58/115
f 56/52/78 55/51/77 88/55/118 87/56/117
f 55/202/77 54/201/76 89/203/119 88/204/118
f 54/39/76 53/29/75 90/34/120 89/40/119
f 53/29/75 52/24/74 91/28/121 90/34/120
f 52/24/74 43/22/58 92/27/122 91/28/121
s 3
f 77/152/106 76/153/105 93/154/123 94/155/124
f 78/158/107 77/152/106 94/155/124 95/159/125
f 79/162/108 78/158/107 95/159/125
f 76/153/105 80/156/109 96/157/126 93/154/123
f 80/156/109 81/160/110 97/161/127 96/157/126
f 81/160/110 82/163/111 98/164/128 97/161/127
f 82/163/111 83/165/112 99/166/129 98/164/128
f 83/165/112 84/167/113 100/168/130 99/166/129
f 84/167/113 85/169/114 101/170/131 100/168/130
s 6
f 86/171/115 87/172/117 102/173/132 85/174/116
f 87/172/117 88/175/118 103/176/133 102/173/132
f 88/204/118 89/203/119 104/205/134 103/206/133
f 89/40/119 90/34/120 105/43/135 104/45/134
f 90/177/120 91/178/121 106/179/136 105/180/135
f 91/28/121 92/27/122 107/32/137 106/33/136
f 85/87/116 102/83/132 108/86/138 109/88/139
f 102/83/132 103/84/133 110/85/140 108/86/138
f 103/206/133 104/205/134 111/207/141 110/208/140
f 104/45/134 105/43/135 112/44/142 111/46/143
f 105/43/135 106/33/136 113/38/144 112/44/142
f 106/33/136 107/32/137 114/37/145 113/38/144
f 101/217/146 85/218/116 109/219/139 115/220/147
s 3
f 94/89/124 93/90/123 117/91/148 118/92/149
f 95/93/125 94/89/124 118/92/149 119/94/150
f 79/95/151 95/93/125 119/94/150 116/96/152
f 93/221/123 96/222/126 120/223/153 117/224/148
f 96/97/126 97/98/127 121/99/154 120/100/153
f 97/98/127 98/101/128 122/102/155 121/99/154
f 98/101/128 99/103/129 123/104/156 122/102/155
f 99/103/129 100/105/130 124/106/157 123/104/156
f 100/105/130 101/107/131 125/108/158 124/106/157
f 101/107/131 115/109/159 126/110/160 125/108/158
s 5
f 40/183/50 39/182/49 79/185/161 128/186/162
f 128/186/162 79/185/161 116/187/163 127/188/164
s 6
f 1/225/57 4/226/165 129/227/166 43/228/58
f 43/228/58 129/227/166 130/229/167 92/230/122
f 92/230/122 130/229/167 131/231/168 107/232/137
f 107/232/137 131/231/168 132/233/169 114/234/145
